<?xml version="1.0" encoding="UTF-8"?>
<!DOCTYPE svg PUBLIC "-//W3C//DTD SVG 1.1//EN" "http://www.w3.org/Graphics/SVG/1.1/DTD/svg11.dtd">
<!-- Creator: CorelDRAW -->
<svg xmlns="http://www.w3.org/2000/svg" xml:space="preserve" width="6.7732mm" height="4.2332mm" style="shape-rendering:geometricPrecision; text-rendering:geometricPrecision; image-rendering:optimizeQuality; fill-rule:evenodd; clip-rule:evenodd"
viewBox="0 0 6.7732 4.2332"
 xmlns:xlink="http://www.w3.org/1999/xlink"
 version="1.1">
 <defs>
  <style type="text/css">
   <![CDATA[
    .fil0 {fill:#0055D5}
    .fil1 {fill:white}
   ]]>
  </style>
 </defs>
 <g id="Layer_x0020_1">
  <metadata id="CorelCorpID_0Corel-Layer"/>
  <rect class="fil0" width="6.7732" height="4.2332"/>
  <g id="_133766632">
   <g>
    <g>
     <path id="SVGID_3_" class="fil1" d="M1.9334 1.0076c0,0 -0.332,-0.2654 -0.3548,0.39 -0.0228,0.5078 -0.0222,1.4939 0.2129,1.9598 0.0994,0.1752 0.232,0.1215 0.4789,-0.0531 0.2147,-0.1586 0.9916,-0.8744 1.3205,-1.1885 0.3289,-0.3141 0.9959,-1.215 1.1348,-0.6029 0.0549,0.2574 0.1228,0.4758 0.0709,1.0466 -0.016,0.1759 -0.0913,0.3092 -0.4344,0.071 -0.2592,-0.1666 -0.5054,-0.3456 -0.5054,-0.3456 0,0 -0.0475,-0.0852 -0.1598,0.0531 -0.0882,0.1104 -0.1327,0.1376 0.0087,0.2215 0.1419,0.0839 0.8595,0.5788 1.1347,0.6559 0.2271,0.0661 0.3567,0.0648 0.3635,-0.3813 -0.0012,-0.3542 -0.0216,-1.368 -0.1506,-1.8 -0.0975,-0.269 -0.2406,-0.3912 -0.5498,-0.0889 -0.3091,0.3024 -1.2841,1.2478 -1.8172,1.676 -0.3536,0.2653 -0.5048,0.5048 -0.6381,0.0623 -0.0938,-0.335 -0.2154,-1.3779 0.1685,-1.1792 0.24,0.1148 0.3597,0.1142 0.2659,0.1864 -0.0938,0.0715 -0.3634,0.319 -0.3634,0.319 0,0 -0.0833,0.0672 -0.0445,0.2129 0.0389,0.1018 0.0389,0.1524 0.2481,-0.0445 0.2092,-0.1968 0.3635,-0.3455 0.3635,-0.3455 0,0 0.0333,-0.0525 0.1326,0.0444 0.0994,0.0969 0.1154,0.1241 0.1154,0.1241 0,0 0.0266,0.0721 0.1327,-0.0531 0.1067,-0.1253 0.1752,-0.2018 -0.0265,-0.319 -0.2012,-0.1185 -1.1071,-0.6214 -1.1071,-0.6214l0 0z"/>
    </g>
   </g>
  </g>
 </g>
</svg>
