<?xml version="1.0" encoding="UTF-8"?>
<!DOCTYPE svg PUBLIC "-//W3C//DTD SVG 1.1//EN" "http://www.w3.org/Graphics/SVG/1.1/DTD/svg11.dtd">
<!-- Creator: CorelDRAW -->
<svg xmlns="http://www.w3.org/2000/svg" xml:space="preserve" width="6.7732mm" height="4.2332mm" style="shape-rendering:geometricPrecision; text-rendering:geometricPrecision; image-rendering:optimizeQuality; fill-rule:evenodd; clip-rule:evenodd"
viewBox="0 0 1.97292 1.23306"
 xmlns:xlink="http://www.w3.org/1999/xlink">
 <defs>
  <style type="text/css">
   <![CDATA[
    .fil1 {fill:white}
    .fil0 {fill:#345D9D}
   ]]>
  </style>
 </defs>
 <g id="Layer_x0020_1">
  <metadata id="CorelCorpID_0Corel-Layer"/>
  <rect class="fil0" width="1.97292" height="1.23306"/>
  <path class="fil1" d="M0.76855 0.736858l-0.102881 0.350238 0.613587 0 0.001136 8.73849e-005c0.00783551,0 0.0150593,-0.00355365 0.0198946,-0.00932105 0.012496,-0.0500133 0.0191373,-0.102357 0.0191082,-0.156215l-0.400951 0 0.0749762 -0.252804 0.116804 -0.033148 0.0244095 -0.0836856 -0.115057 0.0348957 0.050858 -0.172935c-0.0527222,-0.0408379 -0.111969,-0.0736946 -0.175906,-0.0966768l-0.0998809 0.339345 -0.114998 0.0348666 -0.0261281 0.0801319 0.115028 -0.0347792z"/>
  <path class="fil1" d="M0.89453 0.318401c0.0639657,0.0229822 0.123213,0.0558389 0.175906,0.0966768l0.0711604 -0.24191 0 -0.00667038c-0.000378668,-0.010894 -0.00935018,-0.0194868 -0.0202442,-0.0194868l-0.000640822 0 -0.155166 0 -0.000786464 0c-0.0118552,0 -0.0221666,0.00783551 -0.0253707,0.0190499l-0.0448576 0.152341z"/>
 </g>
</svg>
