<?xml version="1.0" encoding="UTF-8"?>
<!DOCTYPE svg PUBLIC "-//W3C//DTD SVG 1.1//EN" "http://www.w3.org/Graphics/SVG/1.1/DTD/svg11.dtd">
<!-- Creator: CorelDRAW -->
<svg xmlns="http://www.w3.org/2000/svg" xml:space="preserve" width="6.7732mm" height="4.2332mm" style="shape-rendering:geometricPrecision; text-rendering:geometricPrecision; image-rendering:optimizeQuality; fill-rule:evenodd; clip-rule:evenodd"
viewBox="0 0 6.7732 4.2332"
 xmlns:xlink="http://www.w3.org/1999/xlink">
 <defs>
  <style type="text/css">
   <![CDATA[
    .fil0 {fill:#F7931A}
    .fil1 {fill:white;fill-rule:nonzero}
   ]]>
  </style>
 </defs>
 <g id="Layer_x0020_1">
  <metadata id="CorelCorpID_0Corel-Layer"/>
  <rect class="fil0" width="6.7732" height="4.2332"/>
  <path class="fil1" d="M4.285 1.8823c0.0375,-0.2512 -0.1537,-0.3863 -0.4152,-0.4764l0.0848 -0.3402 -0.2071 -0.0517 -0.0826 0.3314c-0.0545,-0.0136 -0.1104,-0.0264 -0.166,-0.0391l0.0832 -0.3335 -0.207 -0.0516 -0.0849 0.3402c-0.045,-0.0103 -0.0893,-0.0204 -0.1322,-0.0311l0.0002 -0.0011 -0.2857 -0.0713 -0.0551 0.2212c0,0 0.1537,0.0352 0.1505,0.0374 0.0839,0.0209 0.099,0.0765 0.0965,0.1205l-0.0966 0.3876c0.0057,0.0015 0.0132,0.0036 0.0215,0.0069 -0.0069,-0.0017 -0.0143,-0.0036 -0.0219,-0.0054l-0.1354 0.5431c-0.0103,0.0255 -0.0363,0.0637 -0.095,0.0492 0.0021,0.003 -0.1505,-0.0376 -0.1505,-0.0376l-0.1028 0.2371 0.2695 0.0672c0.0502,0.0126 0.0993,0.0257 0.1477,0.0381l-0.0857 0.3442 0.2069 0.0516 0.0849 -0.3405c0.0565,0.0153 0.1113,0.0295 0.165,0.0428l-0.0846 0.3389 0.2072 0.0517 0.0857 -0.3436c0.3532,0.0669 0.6188,0.0399 0.7306,-0.2796 0.0901,-0.2572 -0.0045,-0.4055 -0.1903,-0.5023 0.1353,-0.0312 0.2373,-0.1202 0.2644,-0.3041l0 -0.0001 0 0.0001zm-0.4733 0.6636c-0.064,0.2572 -0.4971,0.1182 -0.6375,0.0833l0.1137 -0.456c0.1404,0.0351 0.5907,0.1044 0.5238,0.3727l0 0zm0.0641 -0.6674c-0.0584,0.234 -0.4189,0.1151 -0.5358,0.086l0.1031 -0.4136c0.1169,0.0292 0.4935,0.0836 0.4327,0.3276l0 0z"/>
 </g>
</svg>
